<?xml version="1.0" encoding="UTF-8"?>
<svg xmlns="http://www.w3.org/2000/svg" xmlns:xlink="http://www.w3.org/1999/xlink" id="Group_28" data-name="Group 28" width="60" height="60" viewBox="0 0 60 60">
  <defs>
    <clipPath id="clip-path">
      <rect id="Rectangle_23" data-name="Rectangle 23" width="60" height="60" fill="none"></rect>
    </clipPath>
    <clipPath id="clip-path-2">
      <path id="Path_51" data-name="Path 51" d="M134.07,50.625v-15c-2.435,5-4.871,10,0,15m0-15c2.436-5,4.872-10,0-15Z" transform="translate(-131.258 -20.625)" fill="none"></path>
    </clipPath>
  </defs>
  <g id="Group_23" data-name="Group 23">
    <g id="Group_22" data-name="Group 22" clip-path="url(#clip-path)">
      <path id="Path_50" data-name="Path 50" d="M96.143,14.286a1.425,1.425,0,0,1-1.08-.493c-2.237-2.584-1.078-5.262-.231-7.217.919-2.121,1.2-3.1.231-4.211A1.429,1.429,0,0,1,97.223.493c2.237,2.584,1.078,5.262.231,7.217-.919,2.121-1.2,3.1-.231,4.211a1.429,1.429,0,0,1-1.079,2.364" transform="translate(-69.952 0)" fill="#1d1d1b"></path>
    </g>
  </g>
  <g id="Group_25" data-name="Group 25" transform="translate(30.947 20.625)">
    <g id="Group_24" data-name="Group 24" clip-path="url(#clip-path-2)">
      <rect id="Rectangle_24" data-name="Rectangle 24" width="6.93" height="30" transform="translate(-6.931)" fill="#fff"></rect>
      <rect id="Rectangle_25" data-name="Rectangle 25" width="0.025" height="30" transform="translate(-0.001)" fill="#fff"></rect>
      <rect id="Rectangle_26" data-name="Rectangle 26" width="0.025" height="30" transform="translate(0.024)" fill="#fefefe"></rect>
      <rect id="Rectangle_27" data-name="Rectangle 27" width="0.025" height="30" transform="translate(0.049)" fill="#fdfdfd"></rect>
      <rect id="Rectangle_28" data-name="Rectangle 28" width="0.025" height="30" transform="translate(0.073)" fill="#fcfcfc"></rect>
      <rect id="Rectangle_29" data-name="Rectangle 29" width="0.025" height="30" transform="translate(0.098)" fill="#fbfbfb"></rect>
      <rect id="Rectangle_30" data-name="Rectangle 30" width="0.025" height="30" transform="translate(0.123)" fill="#fafafa"></rect>
      <rect id="Rectangle_31" data-name="Rectangle 31" width="0.025" height="30" transform="translate(0.147)" fill="#f9f9f9"></rect>
      <rect id="Rectangle_32" data-name="Rectangle 32" width="0.025" height="30" transform="translate(0.172)" fill="#f8f8f8"></rect>
      <rect id="Rectangle_33" data-name="Rectangle 33" width="0.025" height="30" transform="translate(0.197)" fill="#f7f7f7"></rect>
      <rect id="Rectangle_34" data-name="Rectangle 34" width="0.025" height="30" transform="translate(0.221)" fill="#f6f6f6"></rect>
      <rect id="Rectangle_35" data-name="Rectangle 35" width="0.025" height="30" transform="translate(0.246)" fill="#f5f5f5"></rect>
      <rect id="Rectangle_36" data-name="Rectangle 36" width="0.025" height="30" transform="translate(0.271)" fill="#f4f4f4"></rect>
      <rect id="Rectangle_37" data-name="Rectangle 37" width="0.025" height="30" transform="translate(0.295)" fill="#f3f3f3"></rect>
      <rect id="Rectangle_38" data-name="Rectangle 38" width="0.025" height="30" transform="translate(0.32)" fill="#f2f2f2"></rect>
      <rect id="Rectangle_39" data-name="Rectangle 39" width="0.025" height="30" transform="translate(0.345)" fill="#f1f1f1"></rect>
      <rect id="Rectangle_40" data-name="Rectangle 40" width="0.025" height="30" transform="translate(0.369)" fill="#f0f0f0"></rect>
      <rect id="Rectangle_41" data-name="Rectangle 41" width="0.025" height="30" transform="translate(0.394)" fill="#efefef"></rect>
      <rect id="Rectangle_42" data-name="Rectangle 42" width="0.025" height="30" transform="translate(0.419)" fill="#eee"></rect>
      <rect id="Rectangle_43" data-name="Rectangle 43" width="0.025" height="30" transform="translate(0.443)" fill="#ededed"></rect>
      <rect id="Rectangle_44" data-name="Rectangle 44" width="0.025" height="30" transform="translate(0.468)" fill="#ececec"></rect>
      <rect id="Rectangle_45" data-name="Rectangle 45" width="0.025" height="30" transform="translate(0.493)" fill="#ebebeb"></rect>
      <rect id="Rectangle_46" data-name="Rectangle 46" width="0.025" height="30" transform="translate(0.517)" fill="#eaeaea"></rect>
      <rect id="Rectangle_47" data-name="Rectangle 47" width="0.025" height="30" transform="translate(0.542)" fill="#e9e9e9"></rect>
      <rect id="Rectangle_48" data-name="Rectangle 48" width="0.025" height="30" transform="translate(0.567)" fill="#e8e8e8"></rect>
      <rect id="Rectangle_49" data-name="Rectangle 49" width="0.025" height="30" transform="translate(0.591)" fill="#e7e7e7"></rect>
      <rect id="Rectangle_50" data-name="Rectangle 50" width="0.025" height="30" transform="translate(0.616)" fill="#e6e6e6"></rect>
      <rect id="Rectangle_51" data-name="Rectangle 51" width="0.025" height="30" transform="translate(0.641)" fill="#e5e5e5"></rect>
      <rect id="Rectangle_52" data-name="Rectangle 52" width="0.025" height="30" transform="translate(0.665)" fill="#e4e4e4"></rect>
      <rect id="Rectangle_53" data-name="Rectangle 53" width="0.025" height="30" transform="translate(0.69)" fill="#e3e3e3"></rect>
      <rect id="Rectangle_54" data-name="Rectangle 54" width="0.025" height="30" transform="translate(0.715)" fill="#e2e2e2"></rect>
      <rect id="Rectangle_55" data-name="Rectangle 55" width="0.025" height="30" transform="translate(0.739)" fill="#e1e1e1"></rect>
      <rect id="Rectangle_56" data-name="Rectangle 56" width="0.025" height="30" transform="translate(0.764)" fill="#e0e0e0"></rect>
      <rect id="Rectangle_57" data-name="Rectangle 57" width="0.025" height="30" transform="translate(0.789)" fill="#dfdfdf"></rect>
      <rect id="Rectangle_58" data-name="Rectangle 58" width="0.025" height="30" transform="translate(0.813)" fill="#dedede"></rect>
      <rect id="Rectangle_59" data-name="Rectangle 59" width="0.025" height="30" transform="translate(0.838)" fill="#ddd"></rect>
      <rect id="Rectangle_60" data-name="Rectangle 60" width="0.025" height="30" transform="translate(0.863)" fill="#dcdcdc"></rect>
      <rect id="Rectangle_61" data-name="Rectangle 61" width="0.025" height="30" transform="translate(0.887)" fill="#dbdbdb"></rect>
      <rect id="Rectangle_62" data-name="Rectangle 62" width="0.025" height="30" transform="translate(0.912)" fill="#dadada"></rect>
      <rect id="Rectangle_63" data-name="Rectangle 63" width="0.025" height="30" transform="translate(0.937)" fill="#d9d9d9"></rect>
      <rect id="Rectangle_64" data-name="Rectangle 64" width="0.025" height="30" transform="translate(0.961)" fill="#d8d8d8"></rect>
      <rect id="Rectangle_65" data-name="Rectangle 65" width="0.025" height="30" transform="translate(0.986)" fill="#d7d7d7"></rect>
      <rect id="Rectangle_66" data-name="Rectangle 66" width="0.025" height="30" transform="translate(1.011)" fill="#d6d6d6"></rect>
      <rect id="Rectangle_67" data-name="Rectangle 67" width="0.025" height="30" transform="translate(1.035)" fill="#d5d5d5"></rect>
      <rect id="Rectangle_68" data-name="Rectangle 68" width="0.025" height="30" transform="translate(1.06)" fill="#d4d4d4"></rect>
      <rect id="Rectangle_69" data-name="Rectangle 69" width="0.025" height="30" transform="translate(1.085)" fill="#d3d3d3"></rect>
      <rect id="Rectangle_70" data-name="Rectangle 70" width="0.025" height="30" transform="translate(1.109)" fill="#d2d2d2"></rect>
      <rect id="Rectangle_71" data-name="Rectangle 71" width="0.025" height="30" transform="translate(1.134)" fill="#d1d1d1"></rect>
      <rect id="Rectangle_72" data-name="Rectangle 72" width="0.025" height="30" transform="translate(1.159)" fill="#d0d0d0"></rect>
      <rect id="Rectangle_73" data-name="Rectangle 73" width="0.025" height="30" transform="translate(1.183)" fill="#cfcfcf"></rect>
      <rect id="Rectangle_74" data-name="Rectangle 74" width="0.025" height="30" transform="translate(1.208)" fill="#cecece"></rect>
      <rect id="Rectangle_75" data-name="Rectangle 75" width="0.025" height="30" transform="translate(1.233)" fill="#cdcdcd"></rect>
      <rect id="Rectangle_76" data-name="Rectangle 76" width="0.025" height="30" transform="translate(1.257)" fill="#ccc"></rect>
      <rect id="Rectangle_77" data-name="Rectangle 77" width="0.025" height="30" transform="translate(1.282)" fill="#cbcbcb"></rect>
      <rect id="Rectangle_78" data-name="Rectangle 78" width="0.025" height="30" transform="translate(1.307)" fill="#cacaca"></rect>
      <rect id="Rectangle_79" data-name="Rectangle 79" width="0.025" height="30" transform="translate(1.331)" fill="#c9c9c9"></rect>
      <rect id="Rectangle_80" data-name="Rectangle 80" width="0.025" height="30" transform="translate(1.356)" fill="#c8c8c8"></rect>
      <rect id="Rectangle_81" data-name="Rectangle 81" width="0.025" height="30" transform="translate(1.381)" fill="#c7c7c7"></rect>
      <rect id="Rectangle_82" data-name="Rectangle 82" width="0.025" height="30" transform="translate(1.405)" fill="#c6c6c6"></rect>
      <rect id="Rectangle_83" data-name="Rectangle 83" width="0.025" height="30" transform="translate(1.43)" fill="#c5c5c5"></rect>
      <rect id="Rectangle_84" data-name="Rectangle 84" width="0.025" height="30" transform="translate(1.455)" fill="#c4c4c4"></rect>
      <rect id="Rectangle_85" data-name="Rectangle 85" width="0.025" height="30" transform="translate(1.479)" fill="#c3c3c3"></rect>
      <rect id="Rectangle_86" data-name="Rectangle 86" width="0.025" height="30" transform="translate(1.504)" fill="#c2c2c2"></rect>
      <rect id="Rectangle_87" data-name="Rectangle 87" width="0.025" height="30" transform="translate(1.529)" fill="#c1c1c1"></rect>
      <rect id="Rectangle_88" data-name="Rectangle 88" width="0.025" height="30" transform="translate(1.553)" fill="silver"></rect>
      <rect id="Rectangle_89" data-name="Rectangle 89" width="0.025" height="30" transform="translate(1.578)" fill="#bfbfbf"></rect>
      <rect id="Rectangle_90" data-name="Rectangle 90" width="0.025" height="30" transform="translate(1.603)" fill="#bebebe"></rect>
      <rect id="Rectangle_91" data-name="Rectangle 91" width="0.025" height="30" transform="translate(1.627)" fill="#bdbdbd"></rect>
      <rect id="Rectangle_92" data-name="Rectangle 92" width="0.025" height="30" transform="translate(1.652)" fill="#bcbcbc"></rect>
      <rect id="Rectangle_93" data-name="Rectangle 93" width="0.025" height="30" transform="translate(1.677)" fill="#bbb"></rect>
      <rect id="Rectangle_94" data-name="Rectangle 94" width="0.025" height="30" transform="translate(1.701)" fill="#bababa"></rect>
      <rect id="Rectangle_95" data-name="Rectangle 95" width="0.025" height="30" transform="translate(1.726)" fill="#b9b9b9"></rect>
      <rect id="Rectangle_96" data-name="Rectangle 96" width="0.025" height="30" transform="translate(1.751)" fill="#b8b8b8"></rect>
      <rect id="Rectangle_97" data-name="Rectangle 97" width="0.025" height="30" transform="translate(1.775)" fill="#b7b7b7"></rect>
      <rect id="Rectangle_98" data-name="Rectangle 98" width="0.025" height="30" transform="translate(1.8)" fill="#b6b6b6"></rect>
      <rect id="Rectangle_99" data-name="Rectangle 99" width="0.025" height="30" transform="translate(1.825)" fill="#b5b5b5"></rect>
      <rect id="Rectangle_100" data-name="Rectangle 100" width="0.025" height="30" transform="translate(1.849)" fill="#b4b4b4"></rect>
      <rect id="Rectangle_101" data-name="Rectangle 101" width="0.025" height="30" transform="translate(1.874)" fill="#b3b3b3"></rect>
      <rect id="Rectangle_102" data-name="Rectangle 102" width="0.025" height="30" transform="translate(1.899)" fill="#b2b2b2"></rect>
      <rect id="Rectangle_103" data-name="Rectangle 103" width="0.025" height="30" transform="translate(1.924)" fill="#b1b1b1"></rect>
      <rect id="Rectangle_104" data-name="Rectangle 104" width="0.025" height="30" transform="translate(1.948)" fill="#b0b0b0"></rect>
      <rect id="Rectangle_105" data-name="Rectangle 105" width="0.025" height="30" transform="translate(1.973)" fill="#afafaf"></rect>
      <rect id="Rectangle_106" data-name="Rectangle 106" width="0.025" height="30" transform="translate(1.998)" fill="#aeaeae"></rect>
      <rect id="Rectangle_107" data-name="Rectangle 107" width="0.025" height="30" transform="translate(2.022)" fill="#adadad"></rect>
      <rect id="Rectangle_108" data-name="Rectangle 108" width="0.025" height="30" transform="translate(2.047)" fill="#acacac"></rect>
      <rect id="Rectangle_109" data-name="Rectangle 109" width="0.025" height="30" transform="translate(2.072)" fill="#ababab"></rect>
      <rect id="Rectangle_110" data-name="Rectangle 110" width="0.025" height="30" transform="translate(2.096)" fill="#aaa"></rect>
      <rect id="Rectangle_111" data-name="Rectangle 111" width="0.025" height="30" transform="translate(2.121)" fill="#a9a9a9"></rect>
      <rect id="Rectangle_112" data-name="Rectangle 112" width="0.025" height="30" transform="translate(2.146)" fill="#a8a8a8"></rect>
      <rect id="Rectangle_113" data-name="Rectangle 113" width="0.025" height="30" transform="translate(2.17)" fill="#a7a7a7"></rect>
      <rect id="Rectangle_114" data-name="Rectangle 114" width="0.025" height="30" transform="translate(2.195)" fill="#a6a6a6"></rect>
      <rect id="Rectangle_115" data-name="Rectangle 115" width="0.025" height="30" transform="translate(2.22)" fill="#a5a5a5"></rect>
      <rect id="Rectangle_116" data-name="Rectangle 116" width="0.025" height="30" transform="translate(2.244)" fill="#a4a4a4"></rect>
      <rect id="Rectangle_117" data-name="Rectangle 117" width="0.025" height="30" transform="translate(2.269)" fill="#a3a3a3"></rect>
      <rect id="Rectangle_118" data-name="Rectangle 118" width="0.025" height="30" transform="translate(2.294)" fill="#a2a2a2"></rect>
      <rect id="Rectangle_119" data-name="Rectangle 119" width="0.025" height="30" transform="translate(2.318)" fill="#a1a1a1"></rect>
      <rect id="Rectangle_120" data-name="Rectangle 120" width="0.025" height="30" transform="translate(2.343)" fill="#a0a0a0"></rect>
      <rect id="Rectangle_121" data-name="Rectangle 121" width="0.025" height="30" transform="translate(2.368)" fill="#9f9f9f"></rect>
      <rect id="Rectangle_122" data-name="Rectangle 122" width="0.025" height="30" transform="translate(2.392)" fill="#9e9e9e"></rect>
      <rect id="Rectangle_123" data-name="Rectangle 123" width="0.025" height="30" transform="translate(2.417)" fill="#9d9d9d"></rect>
      <rect id="Rectangle_124" data-name="Rectangle 124" width="0.025" height="30" transform="translate(2.442)" fill="#9c9c9c"></rect>
      <rect id="Rectangle_125" data-name="Rectangle 125" width="0.025" height="30" transform="translate(2.466)" fill="#9b9b9b"></rect>
      <rect id="Rectangle_126" data-name="Rectangle 126" width="0.025" height="30" transform="translate(2.491)" fill="#9a9a9a"></rect>
      <rect id="Rectangle_127" data-name="Rectangle 127" width="0.025" height="30" transform="translate(2.516)" fill="#999"></rect>
      <rect id="Rectangle_128" data-name="Rectangle 128" width="0.025" height="30" transform="translate(2.54)" fill="#989898"></rect>
      <rect id="Rectangle_129" data-name="Rectangle 129" width="0.025" height="30" transform="translate(2.565)" fill="#979797"></rect>
      <rect id="Rectangle_130" data-name="Rectangle 130" width="0.025" height="30" transform="translate(2.59)" fill="#969696"></rect>
      <rect id="Rectangle_131" data-name="Rectangle 131" width="0.025" height="30" transform="translate(2.614)" fill="#959595"></rect>
      <rect id="Rectangle_132" data-name="Rectangle 132" width="0.025" height="30" transform="translate(2.639)" fill="#949494"></rect>
      <rect id="Rectangle_133" data-name="Rectangle 133" width="0.025" height="30" transform="translate(2.664)" fill="#939393"></rect>
      <rect id="Rectangle_134" data-name="Rectangle 134" width="0.025" height="30" transform="translate(2.688)" fill="#929292"></rect>
      <rect id="Rectangle_135" data-name="Rectangle 135" width="0.025" height="30" transform="translate(2.713)" fill="#919191"></rect>
      <rect id="Rectangle_136" data-name="Rectangle 136" width="0.025" height="30" transform="translate(2.738)" fill="#909090"></rect>
      <rect id="Rectangle_137" data-name="Rectangle 137" width="0.025" height="30" transform="translate(2.762)" fill="#8f8f8f"></rect>
      <rect id="Rectangle_138" data-name="Rectangle 138" width="0.025" height="30" transform="translate(2.787)" fill="#8e8e8e"></rect>
      <rect id="Rectangle_139" data-name="Rectangle 139" width="0.025" height="30" transform="translate(2.812)" fill="#8e8e8c"></rect>
      <rect id="Rectangle_140" data-name="Rectangle 140" width="0.025" height="30" transform="translate(2.836)" fill="#8d8d8b"></rect>
      <rect id="Rectangle_141" data-name="Rectangle 141" width="0.025" height="30" transform="translate(2.861)" fill="#8c8c8a"></rect>
      <rect id="Rectangle_142" data-name="Rectangle 142" width="0.025" height="30" transform="translate(2.886)" fill="#8b8b89"></rect>
      <rect id="Rectangle_143" data-name="Rectangle 143" width="0.025" height="30" transform="translate(2.91)" fill="#8a8a88"></rect>
      <rect id="Rectangle_144" data-name="Rectangle 144" width="0.025" height="30" transform="translate(2.935)" fill="#898987"></rect>
      <rect id="Rectangle_145" data-name="Rectangle 145" width="0.025" height="30" transform="translate(2.96)" fill="#888886"></rect>
      <rect id="Rectangle_146" data-name="Rectangle 146" width="0.025" height="30" transform="translate(2.984)" fill="#878785"></rect>
      <rect id="Rectangle_147" data-name="Rectangle 147" width="0.025" height="30" transform="translate(3.009)" fill="#868684"></rect>
      <rect id="Rectangle_148" data-name="Rectangle 148" width="0.025" height="30" transform="translate(3.034)" fill="#858583"></rect>
      <rect id="Rectangle_149" data-name="Rectangle 149" width="0.025" height="30" transform="translate(3.058)" fill="#848482"></rect>
      <rect id="Rectangle_150" data-name="Rectangle 150" width="0.025" height="30" transform="translate(3.083)" fill="#838381"></rect>
      <rect id="Rectangle_151" data-name="Rectangle 151" width="0.025" height="30" transform="translate(3.108)" fill="#828280"></rect>
      <rect id="Rectangle_152" data-name="Rectangle 152" width="0.025" height="30" transform="translate(3.132)" fill="#81817f"></rect>
      <rect id="Rectangle_153" data-name="Rectangle 153" width="0.025" height="30" transform="translate(3.157)" fill="#80807e"></rect>
      <rect id="Rectangle_154" data-name="Rectangle 154" width="0.025" height="30" transform="translate(3.182)" fill="#7f7f7d"></rect>
      <rect id="Rectangle_155" data-name="Rectangle 155" width="0.025" height="30" transform="translate(3.206)" fill="#7e7e7c"></rect>
      <rect id="Rectangle_156" data-name="Rectangle 156" width="0.025" height="30" transform="translate(3.231)" fill="#7d7d7b"></rect>
      <rect id="Rectangle_157" data-name="Rectangle 157" width="0.025" height="30" transform="translate(3.256)" fill="#7c7c7a"></rect>
      <rect id="Rectangle_158" data-name="Rectangle 158" width="0.025" height="30" transform="translate(3.28)" fill="#7b7b79"></rect>
      <rect id="Rectangle_159" data-name="Rectangle 159" width="0.025" height="30" transform="translate(3.305)" fill="#7a7a78"></rect>
      <rect id="Rectangle_160" data-name="Rectangle 160" width="0.025" height="30" transform="translate(3.33)" fill="#797977"></rect>
      <rect id="Rectangle_161" data-name="Rectangle 161" width="0.025" height="30" transform="translate(3.354)" fill="#787876"></rect>
      <rect id="Rectangle_162" data-name="Rectangle 162" width="0.025" height="30" transform="translate(3.379)" fill="#777775"></rect>
      <rect id="Rectangle_163" data-name="Rectangle 163" width="0.025" height="30" transform="translate(3.404)" fill="#767674"></rect>
      <rect id="Rectangle_164" data-name="Rectangle 164" width="0.025" height="30" transform="translate(3.428)" fill="#757573"></rect>
      <rect id="Rectangle_165" data-name="Rectangle 165" width="0.025" height="30" transform="translate(3.453)" fill="#747472"></rect>
      <rect id="Rectangle_166" data-name="Rectangle 166" width="0.025" height="30" transform="translate(3.478)" fill="#737371"></rect>
      <rect id="Rectangle_167" data-name="Rectangle 167" width="0.025" height="30" transform="translate(3.502)" fill="#727270"></rect>
      <rect id="Rectangle_168" data-name="Rectangle 168" width="0.025" height="30" transform="translate(3.527)" fill="#71716f"></rect>
      <rect id="Rectangle_169" data-name="Rectangle 169" width="0.025" height="30" transform="translate(3.552)" fill="#70706e"></rect>
      <rect id="Rectangle_170" data-name="Rectangle 170" width="0.025" height="30" transform="translate(3.576)" fill="#6f6f6d"></rect>
      <rect id="Rectangle_171" data-name="Rectangle 171" width="0.025" height="30" transform="translate(3.601)" fill="#6e6e6c"></rect>
      <rect id="Rectangle_172" data-name="Rectangle 172" width="0.025" height="30" transform="translate(3.626)" fill="#6d6d6b"></rect>
      <rect id="Rectangle_173" data-name="Rectangle 173" width="0.025" height="30" transform="translate(3.65)" fill="#6c6c6a"></rect>
      <rect id="Rectangle_174" data-name="Rectangle 174" width="0.025" height="30" transform="translate(3.675)" fill="#6b6b69"></rect>
      <rect id="Rectangle_175" data-name="Rectangle 175" width="0.025" height="30" transform="translate(3.7)" fill="#6a6a68"></rect>
      <rect id="Rectangle_176" data-name="Rectangle 176" width="0.025" height="30" transform="translate(3.725)" fill="#696967"></rect>
      <rect id="Rectangle_177" data-name="Rectangle 177" width="0.025" height="30" transform="translate(3.749)" fill="#686866"></rect>
      <rect id="Rectangle_178" data-name="Rectangle 178" width="0.025" height="30" transform="translate(3.774)" fill="#676765"></rect>
      <rect id="Rectangle_179" data-name="Rectangle 179" width="0.025" height="30" transform="translate(3.799)" fill="#666664"></rect>
      <rect id="Rectangle_180" data-name="Rectangle 180" width="0.025" height="30" transform="translate(3.823)" fill="#656563"></rect>
      <rect id="Rectangle_181" data-name="Rectangle 181" width="0.025" height="30" transform="translate(3.848)" fill="#646462"></rect>
      <rect id="Rectangle_182" data-name="Rectangle 182" width="0.025" height="30" transform="translate(3.873)" fill="#636361"></rect>
      <rect id="Rectangle_183" data-name="Rectangle 183" width="0.025" height="30" transform="translate(3.897)" fill="#626260"></rect>
      <rect id="Rectangle_184" data-name="Rectangle 184" width="0.025" height="30" transform="translate(3.922)" fill="#61615f"></rect>
      <rect id="Rectangle_185" data-name="Rectangle 185" width="0.025" height="30" transform="translate(3.947)" fill="#60605e"></rect>
      <rect id="Rectangle_186" data-name="Rectangle 186" width="0.025" height="30" transform="translate(3.971)" fill="#5f5f5d"></rect>
      <rect id="Rectangle_187" data-name="Rectangle 187" width="0.025" height="30" transform="translate(3.996)" fill="#5e5e5c"></rect>
      <rect id="Rectangle_188" data-name="Rectangle 188" width="0.025" height="30" transform="translate(4.021)" fill="#5d5d5b"></rect>
      <rect id="Rectangle_189" data-name="Rectangle 189" width="0.025" height="30" transform="translate(4.045)" fill="#5c5c5a"></rect>
      <rect id="Rectangle_190" data-name="Rectangle 190" width="0.025" height="30" transform="translate(4.07)" fill="#5b5b59"></rect>
      <rect id="Rectangle_191" data-name="Rectangle 191" width="0.025" height="30" transform="translate(4.095)" fill="#5a5a58"></rect>
      <rect id="Rectangle_192" data-name="Rectangle 192" width="0.025" height="30" transform="translate(4.119)" fill="#595957"></rect>
      <rect id="Rectangle_193" data-name="Rectangle 193" width="0.025" height="30" transform="translate(4.144)" fill="#585856"></rect>
      <rect id="Rectangle_194" data-name="Rectangle 194" width="0.025" height="30" transform="translate(4.169)" fill="#575755"></rect>
      <rect id="Rectangle_195" data-name="Rectangle 195" width="0.025" height="30" transform="translate(4.193)" fill="#565654"></rect>
      <rect id="Rectangle_196" data-name="Rectangle 196" width="0.025" height="30" transform="translate(4.218)" fill="#555553"></rect>
      <rect id="Rectangle_197" data-name="Rectangle 197" width="0.025" height="30" transform="translate(4.243)" fill="#545452"></rect>
      <rect id="Rectangle_198" data-name="Rectangle 198" width="0.025" height="30" transform="translate(4.267)" fill="#535351"></rect>
      <rect id="Rectangle_199" data-name="Rectangle 199" width="0.025" height="30" transform="translate(4.292)" fill="#525250"></rect>
      <rect id="Rectangle_200" data-name="Rectangle 200" width="0.025" height="30" transform="translate(4.317)" fill="#51514f"></rect>
      <rect id="Rectangle_201" data-name="Rectangle 201" width="0.025" height="30" transform="translate(4.341)" fill="#50504e"></rect>
      <rect id="Rectangle_202" data-name="Rectangle 202" width="0.025" height="30" transform="translate(4.366)" fill="#4f4f4d"></rect>
      <rect id="Rectangle_203" data-name="Rectangle 203" width="0.025" height="30" transform="translate(4.391)" fill="#4e4e4c"></rect>
      <rect id="Rectangle_204" data-name="Rectangle 204" width="0.025" height="30" transform="translate(4.415)" fill="#4d4d4b"></rect>
      <rect id="Rectangle_205" data-name="Rectangle 205" width="0.025" height="30" transform="translate(4.44)" fill="#4c4c4a"></rect>
      <rect id="Rectangle_206" data-name="Rectangle 206" width="0.025" height="30" transform="translate(4.465)" fill="#4b4b49"></rect>
      <rect id="Rectangle_207" data-name="Rectangle 207" width="0.025" height="30" transform="translate(4.489)" fill="#4a4a48"></rect>
      <rect id="Rectangle_208" data-name="Rectangle 208" width="0.025" height="30" transform="translate(4.514)" fill="#494947"></rect>
      <rect id="Rectangle_209" data-name="Rectangle 209" width="0.025" height="30" transform="translate(4.539)" fill="#484846"></rect>
      <rect id="Rectangle_210" data-name="Rectangle 210" width="0.025" height="30" transform="translate(4.563)" fill="#474745"></rect>
      <rect id="Rectangle_211" data-name="Rectangle 211" width="0.025" height="30" transform="translate(4.588)" fill="#464644"></rect>
      <rect id="Rectangle_212" data-name="Rectangle 212" width="0.025" height="30" transform="translate(4.613)" fill="#454543"></rect>
      <rect id="Rectangle_213" data-name="Rectangle 213" width="0.025" height="30" transform="translate(4.637)" fill="#444442"></rect>
      <rect id="Rectangle_214" data-name="Rectangle 214" width="0.025" height="30" transform="translate(4.662)" fill="#434341"></rect>
      <rect id="Rectangle_215" data-name="Rectangle 215" width="0.025" height="30" transform="translate(4.687)" fill="#424240"></rect>
      <rect id="Rectangle_216" data-name="Rectangle 216" width="0.025" height="30" transform="translate(4.711)" fill="#41413f"></rect>
      <rect id="Rectangle_217" data-name="Rectangle 217" width="0.025" height="30" transform="translate(4.736)" fill="#40403e"></rect>
      <rect id="Rectangle_218" data-name="Rectangle 218" width="0.025" height="30" transform="translate(4.761)" fill="#3f3f3d"></rect>
      <rect id="Rectangle_219" data-name="Rectangle 219" width="0.025" height="30" transform="translate(4.785)" fill="#3e3e3c"></rect>
      <rect id="Rectangle_220" data-name="Rectangle 220" width="0.025" height="30" transform="translate(4.81)" fill="#3d3d3b"></rect>
      <rect id="Rectangle_221" data-name="Rectangle 221" width="0.025" height="30" transform="translate(4.835)" fill="#3c3c3a"></rect>
      <rect id="Rectangle_222" data-name="Rectangle 222" width="0.025" height="30" transform="translate(4.859)" fill="#3b3b39"></rect>
      <rect id="Rectangle_223" data-name="Rectangle 223" width="0.025" height="30" transform="translate(4.884)" fill="#3a3a38"></rect>
      <rect id="Rectangle_224" data-name="Rectangle 224" width="0.025" height="30" transform="translate(4.909)" fill="#393937"></rect>
      <rect id="Rectangle_225" data-name="Rectangle 225" width="0.025" height="30" transform="translate(4.933)" fill="#383836"></rect>
      <rect id="Rectangle_226" data-name="Rectangle 226" width="0.025" height="30" transform="translate(4.958)" fill="#373735"></rect>
      <rect id="Rectangle_227" data-name="Rectangle 227" width="0.025" height="30" transform="translate(4.983)" fill="#363634"></rect>
      <rect id="Rectangle_228" data-name="Rectangle 228" width="0.025" height="30" transform="translate(5.007)" fill="#353533"></rect>
      <rect id="Rectangle_229" data-name="Rectangle 229" width="0.025" height="30" transform="translate(5.032)" fill="#343432"></rect>
      <rect id="Rectangle_230" data-name="Rectangle 230" width="0.025" height="30" transform="translate(5.057)" fill="#333331"></rect>
      <rect id="Rectangle_231" data-name="Rectangle 231" width="0.025" height="30" transform="translate(5.081)" fill="#323230"></rect>
      <rect id="Rectangle_232" data-name="Rectangle 232" width="0.025" height="30" transform="translate(5.106)" fill="#31312f"></rect>
      <rect id="Rectangle_233" data-name="Rectangle 233" width="0.025" height="30" transform="translate(5.131)" fill="#30302e"></rect>
      <rect id="Rectangle_234" data-name="Rectangle 234" width="0.025" height="30" transform="translate(5.155)" fill="#2f2f2d"></rect>
      <rect id="Rectangle_235" data-name="Rectangle 235" width="0.025" height="30" transform="translate(5.18)" fill="#2e2e2c"></rect>
      <rect id="Rectangle_236" data-name="Rectangle 236" width="0.025" height="30" transform="translate(5.205)" fill="#2d2d2b"></rect>
      <rect id="Rectangle_237" data-name="Rectangle 237" width="0.025" height="30" transform="translate(5.229)" fill="#2c2c2a"></rect>
      <rect id="Rectangle_238" data-name="Rectangle 238" width="0.025" height="30" transform="translate(5.254)" fill="#2b2b29"></rect>
      <rect id="Rectangle_239" data-name="Rectangle 239" width="0.025" height="30" transform="translate(5.279)" fill="#2a2a28"></rect>
      <rect id="Rectangle_240" data-name="Rectangle 240" width="0.025" height="30" transform="translate(5.303)" fill="#292927"></rect>
      <rect id="Rectangle_241" data-name="Rectangle 241" width="0.025" height="30" transform="translate(5.328)" fill="#282826"></rect>
      <rect id="Rectangle_242" data-name="Rectangle 242" width="0.025" height="30" transform="translate(5.353)" fill="#272725"></rect>
      <rect id="Rectangle_243" data-name="Rectangle 243" width="0.025" height="30" transform="translate(5.377)" fill="#262624"></rect>
      <rect id="Rectangle_244" data-name="Rectangle 244" width="0.025" height="30" transform="translate(5.402)" fill="#252523"></rect>
      <rect id="Rectangle_245" data-name="Rectangle 245" width="0.025" height="30" transform="translate(5.427)" fill="#242422"></rect>
      <rect id="Rectangle_246" data-name="Rectangle 246" width="0.025" height="30" transform="translate(5.451)" fill="#232321"></rect>
      <rect id="Rectangle_247" data-name="Rectangle 247" width="0.025" height="30" transform="translate(5.476)" fill="#222220"></rect>
      <rect id="Rectangle_248" data-name="Rectangle 248" width="0.025" height="30" transform="translate(5.501)" fill="#21211f"></rect>
      <rect id="Rectangle_249" data-name="Rectangle 249" width="0.025" height="30" transform="translate(5.525)" fill="#20201e"></rect>
      <rect id="Rectangle_250" data-name="Rectangle 250" width="0.025" height="30" transform="translate(5.55)" fill="#1f1f1d"></rect>
      <rect id="Rectangle_251" data-name="Rectangle 251" width="0.025" height="30" transform="translate(5.575)" fill="#1e1e1c"></rect>
      <rect id="Rectangle_252" data-name="Rectangle 252" width="0.025" height="30" transform="translate(5.6)" fill="#1d1d1b"></rect>
      <rect id="Rectangle_253" data-name="Rectangle 253" width="6.93" height="30" transform="translate(5.625)" fill="#1d1d1b"></rect>
    </g>
  </g>
  <g id="Group_27" data-name="Group 27">
    <g id="Group_26" data-name="Group 26" clip-path="url(#clip-path)">
      <path id="Path_52" data-name="Path 52" d="M127.792,25.476a1.424,1.424,0,0,1-1.023-.432c-1.938-1.989-.888-4.144-.261-5.432.724-1.486.7-1.741.261-2.187a1.428,1.428,0,1,1,2.046-1.994c1.938,1.989.888,4.145.261,5.432-.724,1.486-.7,1.741-.261,2.187a1.428,1.428,0,0,1-1.023,2.425" transform="translate(-93.742 -11.19)" fill="#1d1d1b"></path>
      <path id="Path_53" data-name="Path 53" d="M58.571,227.857H1.429a1.429,1.429,0,0,1,0-2.857H58.571a1.429,1.429,0,1,1,0,2.857" transform="translate(0 -167.857)" fill="#1d1d1b"></path>
      <path id="Path_54" data-name="Path 54" d="M65.952,132.619H16.429A1.429,1.429,0,0,1,15,131.19a26.19,26.19,0,1,1,52.381,0,1.429,1.429,0,0,1-1.429,1.429M17.9,129.762H64.48a23.334,23.334,0,0,0-46.58,0" transform="translate(-11.19 -78.333)" fill="#1d1d1b"></path>
      <path id="Path_55" data-name="Path 55" d="M106.548,85.77a1.429,1.429,0,0,1-1.429-1.429v-4.1a2.381,2.381,0,0,0-4.762,0v4.1a1.429,1.429,0,0,1-2.857,0v-4.1a5.238,5.238,0,0,1,10.476,0v4.1a1.429,1.429,0,0,1-1.429,1.429" transform="translate(-72.738 -55.952)" fill="#1d1d1b"></path>
      <path id="Path_56" data-name="Path 56" d="M48.964,141.9a1.429,1.429,0,0,1-1.235-2.144,20.649,20.649,0,0,1,12.265-9.5,1.428,1.428,0,1,1,.762,2.754A17.772,17.772,0,0,0,50.2,141.185a1.428,1.428,0,0,1-1.238.713" transform="translate(-35.464 -97.137)" fill="#1d1d1b"></path>
    </g>
  </g>
</svg>
