<?xml version="1.0" encoding="UTF-8"?>
<svg xmlns="http://www.w3.org/2000/svg" xmlns:xlink="http://www.w3.org/1999/xlink" id="Group_10" data-name="Group 10" width="64.068" height="60" viewBox="0 0 64.068 60">
  <defs>
    <clipPath id="clip-path">
      <rect id="Rectangle_14" data-name="Rectangle 14" width="64.068" height="60" fill="none"></rect>
    </clipPath>
  </defs>
  <g id="Group_9" data-name="Group 9" clip-path="url(#clip-path)">
    <path id="Path_45" data-name="Path 45" d="M62.542,60H1.525A1.526,1.526,0,0,1,0,58.475V25.933a1.526,1.526,0,0,1,.572-1.191L31.081.334a1.527,1.527,0,0,1,1.906,0L44.746,9.742V5.594a1.526,1.526,0,0,1,1.525-1.525h8.136a1.526,1.526,0,0,1,1.525,1.525v13.1l7.563,6.05a1.526,1.526,0,0,1,.572,1.191V58.475A1.526,1.526,0,0,1,62.542,60M3.051,56.95H61.017V26.666l-7.563-6.05a1.526,1.526,0,0,1-.572-1.191V7.119H47.8v5.8a1.525,1.525,0,0,1-2.478,1.191L32.034,3.479,3.051,26.666Z" transform="translate(0 0)" fill="#1d1d1b"></path>
    <path id="Path_46" data-name="Path 46" d="M54.661,124.322a9.661,9.661,0,1,1,7.877-15.255h16.53a1.527,1.527,0,0,1,1.079.447l4.068,4.068a1.526,1.526,0,0,1,0,2.158l-4.068,4.068a1.527,1.527,0,0,1-1.079.447H62.538a9.7,9.7,0,0,1-7.877,4.068m0-16.271a6.61,6.61,0,1,0,5.726,9.915,1.526,1.526,0,0,1,1.321-.762H78.436l2.542-2.542-2.542-2.542H62.453c-.868,0-1.764,0-2.133-.875a6.638,6.638,0,0,0-5.659-3.192" transform="translate(-32.797 -76.525)" fill="#1d1d1b"></path>
    <path id="Path_47" data-name="Path 47" d="M121.525,147.585A1.526,1.526,0,0,1,120,146.059v-2.034a1.525,1.525,0,0,1,3.051,0v2.034a1.526,1.526,0,0,1-1.525,1.525" transform="translate(-87.458 -103.856)" fill="#1d1d1b"></path>
    <path id="Path_48" data-name="Path 48" d="M144.025,147.585a1.526,1.526,0,0,1-1.525-1.525v-2.034a1.525,1.525,0,0,1,3.051,0v2.034a1.526,1.526,0,0,1-1.525,1.525" transform="translate(-103.856 -103.856)" fill="#1d1d1b"></path>
    <path id="Path_49" data-name="Path 49" d="M76.491,138.051H76.45a1.525,1.525,0,1,1,0-3.051h.041a1.525,1.525,0,0,1,0,3.051" transform="translate(-54.606 -98.39)" fill="#1d1d1b"></path>
  </g>
</svg>
