<?xml version="1.0" encoding="UTF-8"?>
<svg xmlns="http://www.w3.org/2000/svg" width="59.912" height="60" viewBox="0 0 59.912 60">
  <g id="_2playground-svgrepo-com" data-name="2playground-svgrepo-com" transform="translate(0.627 1)">
    <g id="Group_33" data-name="Group 33" transform="translate(-0.627 -1)">
      <path id="Path_69" data-name="Path 69" d="M58.286,53h-2c-6.2,0-10-1.3-10-8,0-9.625-9.357-14.525-14.994-16V22.015h5a.944.944,0,0,0,1-1,4.949,4.949,0,0,0-5-5h-1v-3h1a.96.96,0,0,0,.9-.7.946.946,0,0,0-.3-1.1L16.9-.775a.912.912,0,0,0-1.2,0L-.29,11.22a1.067,1.067,0,0,0-.3,1.1.96.96,0,0,0,.9.7h1V38.009a.944.944,0,0,0,1,1h1V58a.944.944,0,0,0,1,1h4a.944.944,0,0,0,1-1V39.008h2V58a1,1,0,1,0,2,0V57h6v1a1,1,0,1,0,2,0V39.008h2V58a.944.944,0,0,0,1,1h4a.944.944,0,0,0,1-1V39.008h1a.944.944,0,0,0,1-1V35.343c2.9.911,9,3.564,9,9.663,0,6.4,2.8,13.994,15.993,13.994h2a.944.944,0,0,0,1-1V54A.944.944,0,0,0,58.286,53ZM32.3,18.017a2.912,2.912,0,0,1,2.8,2H31.3v-2ZM16.3,1.224,29.3,11.02H3.309ZM7.307,57h-2V39.008h2ZM19.3,49h-6v-4h6Zm-6,2h6v4h-6V51Zm6-8h-6v-4h6Zm1-6h-9v-11a5,5,0,0,1,10,0v11ZM27.3,57h-2V39.008h2Zm2-19.992h-6v-11a7,7,0,1,0-13.994,0v11h-6V13.019H29.3v23.99ZM57.286,57h-1c-9.4,0-13.994-3.9-13.994-11.995,0-7.8-8-10.8-11-11.7v-2.2c5.1,1.4,12.995,5.7,12.995,13.894,0,8.8,6.1,10,11.995,10h1v2Z" transform="translate(0.627 1)"></path>
    </g>
  </g>
</svg>
