<?xml version="1.0" encoding="UTF-8"?>
<svg xmlns="http://www.w3.org/2000/svg" xmlns:xlink="http://www.w3.org/1999/xlink" id="Group_8" data-name="Group 8" width="60" height="60" viewBox="0 0 60 60">
  <defs>
    <clipPath id="clip-path">
      <rect id="Rectangle_13" data-name="Rectangle 13" width="60" height="60" fill="none"></rect>
    </clipPath>
  </defs>
  <g id="Group_7" data-name="Group 7" clip-path="url(#clip-path)">
    <path id="Path_28" data-name="Path 28" d="M7.143,194.286a7.143,7.143,0,1,1,7.143-7.143,7.151,7.151,0,0,1-7.143,7.143m0-11.429a4.286,4.286,0,1,0,4.286,4.286,4.291,4.291,0,0,0-4.286-4.286" transform="translate(0 -134.286)" fill="#1d1d1b"></path>
    <path id="Path_29" data-name="Path 29" d="M97.143,179.286a7.143,7.143,0,1,1,7.143-7.143,7.151,7.151,0,0,1-7.143,7.143m0-11.429a4.286,4.286,0,1,0,4.286,4.286,4.291,4.291,0,0,0-4.286-4.286" transform="translate(-67.143 -123.095)" fill="#1d1d1b"></path>
    <path id="Path_30" data-name="Path 30" d="M46.429,123.265A1.429,1.429,0,0,1,45,121.836V97.074a1.429,1.429,0,0,1,1.194-1.409L65.3,92.481a1.429,1.429,0,0,1,.47,2.819L47.857,98.285v23.552a1.429,1.429,0,0,1-1.429,1.429" transform="translate(-33.571 -68.979)" fill="#1d1d1b"></path>
    <path id="Path_31" data-name="Path 31" d="M136.429,128.81A1.429,1.429,0,0,1,135,127.381V106.429a1.429,1.429,0,1,1,2.857,0v20.952a1.429,1.429,0,0,1-1.429,1.429" transform="translate(-100.714 -78.333)" fill="#1d1d1b"></path>
    <path id="Path_32" data-name="Path 32" d="M46.426,126.667a1.429,1.429,0,0,1-.233-2.838l22.857-3.81a1.429,1.429,0,0,1,.47,2.819l-22.857,3.81a1.442,1.442,0,0,1-.237.02" transform="translate(-33.57 -89.524)" fill="#1d1d1b"></path>
    <path id="Path_33" data-name="Path 33" d="M125.238,85.476a5.238,5.238,0,1,1,5.238-5.238,5.244,5.244,0,0,1-5.238,5.238m0-7.619a2.381,2.381,0,1,0,2.381,2.381,2.384,2.384,0,0,0-2.381-2.381" transform="translate(-89.524 -55.952)" fill="#1d1d1b"></path>
    <path id="Path_34" data-name="Path 34" d="M200.238,70.476a5.238,5.238,0,1,1,5.238-5.238,5.244,5.244,0,0,1-5.238,5.238m0-7.619a2.381,2.381,0,1,0,2.381,2.381,2.384,2.384,0,0,0-2.381-2.381" transform="translate(-145.476 -44.762)" fill="#1d1d1b"></path>
    <path id="Path_35" data-name="Path 35" d="M151.429,25.714A1.429,1.429,0,0,1,150,24.285V5.238a1.429,1.429,0,0,1,1.148-1.4L170.2.027a1.429,1.429,0,0,1,1.709,1.4V20.476a1.429,1.429,0,1,1-2.857,0V3.171l-16.19,3.238V24.285a1.429,1.429,0,0,1-1.429,1.429" transform="translate(-111.905 0)" fill="#1d1d1b"></path>
    <path id="Path_36" data-name="Path 36" d="M151.426,36.667a1.429,1.429,0,0,1-.279-2.83l19.048-3.81a1.429,1.429,0,0,1,.561,2.8l-19.048,3.81a1.446,1.446,0,0,1-.282.028" transform="translate(-111.904 -22.381)" fill="#1d1d1b"></path>
    <path id="Path_37" data-name="Path 37" d="M16.429,10.476a1.429,1.429,0,0,1,0-2.857,6.2,6.2,0,0,0,6.19-6.19,1.429,1.429,0,0,1,2.857,0,9.058,9.058,0,0,1-9.048,9.048" transform="translate(-11.19 0)" fill="#1d1d1b"></path>
    <path id="Path_38" data-name="Path 38" d="M24.048,40.476a1.429,1.429,0,0,1-1.429-1.429,6.2,6.2,0,0,0-6.19-6.19,1.429,1.429,0,0,1,0-2.857,9.058,9.058,0,0,1,9.048,9.048,1.429,1.429,0,0,1-1.429,1.429" transform="translate(-11.19 -22.381)" fill="#1d1d1b"></path>
    <path id="Path_39" data-name="Path 39" d="M46.429,40.476A1.429,1.429,0,0,1,45,39.048,9.058,9.058,0,0,1,54.048,30a1.429,1.429,0,1,1,0,2.857,6.2,6.2,0,0,0-6.19,6.19,1.429,1.429,0,0,1-1.429,1.429" transform="translate(-33.571 -22.381)" fill="#1d1d1b"></path>
    <path id="Path_40" data-name="Path 40" d="M54.048,10.476A9.058,9.058,0,0,1,45,1.429a1.429,1.429,0,1,1,2.857,0,6.2,6.2,0,0,0,6.19,6.19,1.429,1.429,0,1,1,0,2.857" transform="translate(-33.571 0)" fill="#1d1d1b"></path>
    <path id="Path_41" data-name="Path 41" d="M166.429,175.476a1.429,1.429,0,0,1,0-2.857,6.2,6.2,0,0,0,6.19-6.19,1.429,1.429,0,0,1,2.857,0,9.058,9.058,0,0,1-9.048,9.048" transform="translate(-123.095 -123.095)" fill="#1d1d1b"></path>
    <path id="Path_42" data-name="Path 42" d="M174.048,205.476a1.429,1.429,0,0,1-1.429-1.429,6.2,6.2,0,0,0-6.19-6.19,1.429,1.429,0,0,1,0-2.857,9.058,9.058,0,0,1,9.048,9.048,1.429,1.429,0,0,1-1.429,1.429" transform="translate(-123.095 -145.476)" fill="#1d1d1b"></path>
    <path id="Path_43" data-name="Path 43" d="M196.429,205.476A1.429,1.429,0,0,1,195,204.048,9.058,9.058,0,0,1,204.048,195a1.429,1.429,0,1,1,0,2.857,6.2,6.2,0,0,0-6.19,6.19,1.429,1.429,0,0,1-1.429,1.429" transform="translate(-145.476 -145.476)" fill="#1d1d1b"></path>
    <path id="Path_44" data-name="Path 44" d="M204.048,175.476A9.058,9.058,0,0,1,195,166.429a1.429,1.429,0,0,1,2.857,0,6.2,6.2,0,0,0,6.19,6.19,1.429,1.429,0,1,1,0,2.857" transform="translate(-145.476 -123.095)" fill="#1d1d1b"></path>
  </g>
</svg>
