<?xml version="1.0" encoding="UTF-8"?>
<svg xmlns="http://www.w3.org/2000/svg" xmlns:xlink="http://www.w3.org/1999/xlink" id="Group_2" data-name="Group 2" width="341.379" height="61.332" viewBox="0 0 341.379 61.332">
  <defs>
    <clipPath id="clip-path">
      <rect id="Rectangle_3" data-name="Rectangle 3" width="341.379" height="61.332" fill="none"></rect>
    </clipPath>
  </defs>
  <g id="Group_1" data-name="Group 1" clip-path="url(#clip-path)">
    <path id="Path_1" data-name="Path 1" d="M269.149,71.674h-4.693v4.883h-3.129V59.963c2.608,0,5.215-.023,7.823-.023,8.107,0,8.13,11.734,0,11.734m-4.693-2.868h4.693a2.94,2.94,0,1,0,0-5.879h-4.693Z" transform="translate(-146.355 -33.569)" fill="#002c4b"></path>
    <path id="Path_2" data-name="Path 2" d="M300.882,59.994v13.7h8.533v2.892H297.753V59.994Z" transform="translate(-166.756 -33.599)" fill="#002c4b"></path>
    <path id="Path_3" data-name="Path 3" d="M338.885,73.457h-8.676l-1.422,3.129H325.4l7.443-16.593h3.413L343.7,76.586h-3.413Zm-4.338-9.98-3.081,7.064h6.163Z" transform="translate(-182.238 -33.599)" fill="#002c4b"></path>
    <path id="Path_4" data-name="Path 4" d="M369.849,59.994H382.6v1.469L374,73.623h8.6v2.963H369.635v-1.8l8.415-11.852h-8.2Z" transform="translate(-207.013 -33.599)" fill="#002c4b"></path>
    <path id="Path_5" data-name="Path 5" d="M413.03,73.457h-8.675l-1.422,3.129h-3.39l7.443-16.593H410.4l7.443,16.593h-3.414Zm-4.338-9.98-3.081,7.064h6.163Z" transform="translate(-223.762 -33.599)" fill="#002c4b"></path>
    <path id="Path_6" data-name="Path 6" d="M462.487,71.674h-4.693v4.883h-3.129V59.963c2.607,0,5.215-.023,7.822-.023,8.107,0,8.13,11.734,0,11.734m-4.693-2.868h4.693a2.94,2.94,0,1,0,0-5.879h-4.693Z" transform="translate(-254.634 -33.569)" fill="#002c4b"></path>
    <path id="Path_7" data-name="Path 7" d="M500.7,73.457h-8.675L490.6,76.586h-3.39l7.443-16.593h3.414l7.443,16.593H502.1Zm-4.338-9.98-3.081,7.064h6.163Z" transform="translate(-272.862 -33.599)" fill="#002c4b"></path>
    <path id="Path_8" data-name="Path 8" d="M528.9,62.838h-5.263V59.993h13.654v2.844H532.03V76.586H528.9Z" transform="translate(-293.262 -33.599)" fill="#002c4b"></path>
    <path id="Path_9" data-name="Path 9" d="M571.3,76.586H558.88V59.993H571.3v3.034h-9.316v3.816h8.984v2.916h-8.984V73.5H571.3Z" transform="translate(-313 -33.599)" fill="#002c4b"></path>
    <path id="Path_10" data-name="Path 10" d="M595.741,59.994v13.7h8.533v2.892H592.612V59.994Z" transform="translate(-331.891 -33.599)" fill="#002c4b"></path>
    <path id="Path_11" data-name="Path 11" d="M635.34,59.94h3.129V76.556h-1.944v.023L627.8,65.368V76.556h-3.129V59.964h2.537l8.13,10.287Z" transform="translate(-349.846 -33.569)" fill="#002c4b"></path>
    <rect id="Rectangle_1" data-name="Rectangle 1" width="3.105" height="16.593" transform="translate(291.517 26.395)" fill="#002c4b"></rect>
    <path id="Path_12" data-name="Path 12" d="M685.958,73.457h-8.676l-1.422,3.129h-3.39l7.443-16.593h3.414l7.443,16.593h-3.414Zm-4.338-9.98-3.081,7.064H684.7Z" transform="translate(-376.615 -33.599)" fill="#002c4b"></path>
    <path id="Path_13" data-name="Path 13" d="M66.811,6.9a3.937,3.937,0,0,0,.086-2.08L66.239.172a.2.2,0,0,0-.4-.011l-.908,4.6a3.937,3.937,0,0,0-.026,2.081,1.056,1.056,0,0,0,1.9.051m-1.049,3.6c17.989.487,32.513,15.019,32.457,32.617,0,.055-6.709-.55-31.512.33-21.492.762-35.123,3.776-35.139,3.489-.076-1.363-.121-2.813-.078-4.4A33.175,33.175,0,0,1,65.762,10.5m-5.41-3.383a3.951,3.951,0,0,0-.28-2.063L58.606.588a.2.2,0,0,0-.221-.134.2.2,0,0,0-.171.192l-.084,4.688a3.959,3.959,0,0,0,.34,2.055,1.056,1.056,0,0,0,1.883-.276M54.029,8.436A3.955,3.955,0,0,0,53.39,6.45L51.161,2.308a.2.2,0,0,0-.241-.1.2.2,0,0,0-.135.219l.741,4.632a3.983,3.983,0,0,0,.7,1.967,1.054,1.054,0,0,0,1.8-.594m-5.993,2.385a3.957,3.957,0,0,0-.98-1.845l-2.921-3.7a.2.2,0,0,0-.255-.052.2.2,0,0,0-.094.238L45.332,9.9a3.989,3.989,0,0,0,1.032,1.817,1.05,1.05,0,0,0,1.672-.894M42.556,14.2a4.021,4.021,0,0,0-1.29-1.649L37.738,9.405a.2.2,0,0,0-.26-.009.2.2,0,0,0-.052.251l2.3,4.1a4.012,4.012,0,0,0,1.335,1.611A1.047,1.047,0,0,0,42.556,14.2m-4.8,4.264a4.04,4.04,0,0,0-1.559-1.4l-4.028-2.491a.2.2,0,0,0-.256.036.2.2,0,0,0-.007.256l2.99,3.648a4.042,4.042,0,0,0,1.6,1.359,1.041,1.041,0,0,0,1.261-1.405m-3.979,5.023a4.062,4.062,0,0,0-1.783-1.114l-4.4-1.763a.2.2,0,0,0-.247.08.2.2,0,0,0,.039.253l3.586,3.081a4.052,4.052,0,0,0,1.813,1.064,1.037,1.037,0,0,0,.995-1.6m-3.033,5.63a4.1,4.1,0,0,0-1.952-.793l-4.647-.982a.2.2,0,0,0-.229.121.2.2,0,0,0,.083.243l4.073,2.419a4.076,4.076,0,0,0,1.973.738,1.034,1.034,0,0,0,.7-1.746m-2,6.065a4.094,4.094,0,0,0-2.061-.447l-4.749-.171a.2.2,0,0,0-.2.159.2.2,0,0,0,.125.224l4.436,1.685a4.1,4.1,0,0,0,2.072.388,1.032,1.032,0,0,0,.381-1.84m-.9,6.315a4.115,4.115,0,0,0-2.108-.087l-4.706.646a.2.2,0,0,0-.011.392l4.664.9a4.119,4.119,0,0,0,2.109.029,1.032,1.032,0,0,0,.051-1.879M101.674,39a4.1,4.1,0,0,0,2.091-.276l4.521-1.443a.2.2,0,0,0,.137-.217.2.2,0,0,0-.2-.17l-4.751-.087a4.1,4.1,0,0,0-2.082.335,1.032,1.032,0,0,0,.28,1.858m-1.344-6.24a4.082,4.082,0,0,0,2.011-.63l4.2-2.195a.2.2,0,0,0,.1-.237.2.2,0,0,0-.221-.134l-4.694.728a4.08,4.08,0,0,0-1.992.688,1.034,1.034,0,0,0,.6,1.781m-2.421-5.916a4.073,4.073,0,0,0,1.869-.963L103.525,23a.2.2,0,0,0,.052-.251.2.2,0,0,0-.242-.094l-4.494,1.522A4.066,4.066,0,0,0,97,25.2a1.037,1.037,0,0,0,.908,1.651m-3.425-5.411a4.059,4.059,0,0,0,1.671-1.271l3.182-3.48a.193.193,0,0,0,.007-.255.2.2,0,0,0-.254-.051l-4.158,2.268A4.049,4.049,0,0,0,93.3,19.965a1.041,1.041,0,0,0,1.183,1.471m-4.324-4.743a4.015,4.015,0,0,0,1.421-1.538L94.1,11.182a.2.2,0,0,0-.037-.254.2.2,0,0,0-.26-.006l-3.693,2.946a4.007,4.007,0,0,0-1.377,1.578,1.046,1.046,0,0,0,1.425,1.246m-5.093-3.93A4,4,0,0,0,86.195,11l1.783-4.346a.2.2,0,0,0-.081-.242.2.2,0,0,0-.258.038L84.521,9.989a3.978,3.978,0,0,0-1.077,1.789,1.05,1.05,0,0,0,1.622.984m-5.707-3a3.97,3.97,0,0,0,.8-1.926l.991-4.585a.194.194,0,0,0-.121-.225.2.2,0,0,0-.246.082L78.336,7.127a3.937,3.937,0,0,0-.747,1.946,1.054,1.054,0,0,0,1.77.691M73.211,7.788a3.934,3.934,0,0,0,.451-2.033l.169-4.685a.194.194,0,0,0-.161-.2.2.2,0,0,0-.227.122l-1.7,4.377a3.964,3.964,0,0,0-.392,2.045,1.055,1.055,0,0,0,1.864.376" transform="translate(-11.68 0)" fill="#002c4b" fill-rule="evenodd"></path>
    <path id="Path_14" data-name="Path 14" d="M384.51,50.127a1.467,1.467,0,1,0-1.466,1.466,1.466,1.466,0,0,0,1.466-1.466" transform="translate(-213.701 -27.252)" fill="#002c4b"></path>
    <path id="Path_15" data-name="Path 15" d="M118.053,127.547a2.148,2.148,0,0,0-1.425-.56,1.911,1.911,0,0,0-1.929,2.065,1.774,1.774,0,0,0,1.929,1.873,1.863,1.863,0,0,0,1.264-.448v-.993H116.46v-.944h2.4V130.9a2.791,2.791,0,0,1-2.233,1.008,2.7,2.7,0,0,1-2.961-2.857,2.849,2.849,0,0,1,2.961-3.033,2.96,2.96,0,0,1,2.081.856Z" transform="translate(-63.659 -70.577)" fill="#002c4b"></path>
    <path id="Path_16" data-name="Path 16" d="M135.332,131.975h-1.257l-1.633-1.873h-1.016v1.873H130.37v-5.61c.888,0,1.777.008,2.665.008a1.857,1.857,0,0,1,2.017,1.857,1.662,1.662,0,0,1-1.417,1.761l1.7,1.912Zm-3.905-4.618v1.793h1.608a.9.9,0,1,0,0-1.793Z" transform="translate(-73.013 -70.77)" fill="#002c4b"></path>
    <path id="Path_17" data-name="Path 17" d="M148.97,130.928h-2.929l-.48,1.056h-1.145l2.513-5.6h1.153l2.513,5.6h-1.152Zm-1.465-3.37-1.04,2.385h2.081Z" transform="translate(-80.88 -70.78)" fill="#002c4b"></path>
    <path id="Path_18" data-name="Path 18" d="M166.959,128.007a1.14,1.14,0,0,1-.728,1.081,1.366,1.366,0,0,1,.9,1.248c0,1.249-.937,1.648-2.1,1.648h-2.657v-5.6h2.657c1.1,0,1.928.5,1.928,1.625m-3.545.624h1.617c.664,0,.88-.28.88-.6,0-.256-.208-.688-.88-.688h-1.617Zm0,2.369h1.617c.432,0,1.048-.144,1.048-.672,0-.5-.616-.768-1.048-.768h-1.617Z" transform="translate(-90.937 -70.78)" fill="#002c4b"></path>
    <rect id="Rectangle_2" data-name="Rectangle 2" width="1.048" height="5.602" transform="translate(78.305 55.603)" fill="#002c4b"></rect>
    <path id="Path_19" data-name="Path 19" d="M189.5,126.365h1.056v5.61H189.9v.008l-2.945-3.785v3.777H185.9v-5.6h.857l2.745,3.473Z" transform="translate(-104.112 -70.77)" fill="#002c4b"></path>
    <path id="Path_20" data-name="Path 20" d="M205.026,130.928H202.1l-.48,1.056h-1.145l2.513-5.6h1.153l2.513,5.6H205.5Zm-1.465-3.37-1.04,2.385H204.6Z" transform="translate(-112.274 -70.78)" fill="#002c4b"></path>
    <path id="Path_21" data-name="Path 21" d="M500.123,112.813c10.591.347,20.728.508,29.944.476s17.5-.241,24.427-.513,12.522-.592,16.469-.792,6.279-.276,6.612-.11-1.391.544-4.978,1.049-9.072,1.114-16.24,1.642-16,.96-25.9,1.123-20.828.073-32.021-.294c-22.422-.745-41.4-1.815-54.881-3.065-13.479-1.274-22.243-1.832-21.719-2.165s6.265-.774,20.23.039c13.98.791,36.867,1.909,58.06,2.61" transform="translate(-236.234 -61.459)" fill="#002c4b" fill-rule="evenodd"></path>
    <path id="Path_22" data-name="Path 22" d="M170.934,111.559c-23.447-1.828-46.454-3.48-68.46-4.23-10.979-.377-21.678-.524-31.729-.39s-19.413.548-27.614,1.18S27.9,109.58,22.176,110.443,11.985,112.2,8.613,112.977c-6.708,1.574-9.274,2.662-8.471,2.85.883.21,5.071-.489,12.617-1.591,7.533-1.084,18.7-2.542,33.6-3.313,7.43-.388,15.745-.6,24.74-.575s18.66.272,28.79.721c20.284.89,42.312,2.578,65.644,4.4s46.058,3.56,67.6,4.592c10.754.519,21.192.867,31.071,1s19.186.073,27.6-.18a377.652,377.652,0,0,0,38.026-2.829c8.19-1.106,11.871-2,11.295-2.229-.623-.257-5.427.158-13.924.757s-20.85,1.308-36.358,1.4c-15.495.118-33.992-.428-54.223-1.626-20.262-1.176-42.229-2.967-65.683-4.8" transform="translate(0 -59.864)" fill="#002c4b" fill-rule="evenodd"></path>
    <path id="Path_23" data-name="Path 23" d="M253.61,33.624c-8.984-.883-19.168-1.366-32.364-2.039-7.186-.367-15.985-.22-15.838.586,3.3.733,4.473-.22,48.345,3.97,14.126,1.349,21.347.279,21.884-.163.523-.428-8.358-.981-22.027-2.355" transform="translate(-115.037 -17.582)" fill="#002c4b" fill-rule="evenodd"></path>
    <path id="Path_24" data-name="Path 24" d="M449.19,21.727c-.883-.21-5.071.49-12.617,1.591-7.533,1.084-18.7,2.543-33.6,3.313-7.43.387-15.745.6-24.74.575s-18.66-.272-28.79-.721c-20.284-.89-42.312-2.577-65.643-4.4S239.954,18.5,218.393,18.32c-7.345-.062-25.022.5-24.486,1.5.685.33.563.43,9.086.638,21.125.517,47.372,2.964,75.406,5.533,20.795,1.906,46.454,3.481,68.46,4.23,10.979.377,21.678.524,31.728.39S398,30.066,406.2,29.435s15.235-1.461,20.956-2.324,10.191-1.753,13.562-2.534c6.708-1.574,9.274-2.663,8.471-2.851" transform="translate(-108.59 -10.257)" fill="#002c4b" fill-rule="evenodd"></path>
  </g>
</svg>
