<?xml version="1.0" encoding="UTF-8"?>
<svg xmlns="http://www.w3.org/2000/svg" xmlns:xlink="http://www.w3.org/1999/xlink" width="544.669" height="392.789" viewBox="0 0 544.669 392.789">
  <defs>
    <clipPath id="clip-path">
      <rect id="Rectangle_1" data-name="Rectangle 1" width="544.669" height="392.789" transform="translate(0 0)" fill="none"></rect>
    </clipPath>
  </defs>
  <g id="Group_3" data-name="Group 3" transform="translate(0 0.001)">
    <g id="Group_1" data-name="Group 1" transform="translate(0 -0.001)" clip-path="url(#clip-path)">
      <path id="Path_1" data-name="Path 1" d="M833.193,1131.909a159.169,159.169,0,0,1-20.03,22.819,297.124,297.124,0,0,1-36.719-20.588,345.841,345.841,0,0,1-137.974,28.37,339.541,339.541,0,0,1-47.851-3.341,186.207,186.207,0,0,1-29.482-33.378,364.451,364.451,0,0,0,74.547,7.791,352.057,352.057,0,0,0,146.878-32.268C798.144,1113,815.391,1123.011,833.193,1131.909Z" transform="translate(-427.052 -838.153)" fill="#1978be" fill-rule="evenodd"></path>
      <path id="Path_2" data-name="Path 2" d="M787.449,916.743a197.359,197.359,0,0,1-13.909,31.168,343.232,343.232,0,0,1-57.3-33.387,347.251,347.251,0,0,1-149.664,33.939A352.185,352.185,0,0,1,482,937.888a149.28,149.28,0,0,1-11.681-31.15,348.241,348.241,0,0,0,87.356,11.12A341.368,341.368,0,0,0,719.014,877.8,345.482,345.482,0,0,0,787.449,916.743Zm-54.52,77.339q-14.549-7.718-28.376-16.7c-41.172,17.244-86.795,26.151-134.085,26.151-10.574,0-21.136,0-31.717-1.113a166.967,166.967,0,0,0,91.806,27.821A164.959,164.959,0,0,0,732.929,994.082Z" transform="translate(-357.939 -668.052)" fill="#1978be" fill-rule="evenodd"></path>
      <path id="Path_3" data-name="Path 3" d="M0,0H544.669V392.788H0ZM272.616,13.356C171.358,13.356,89.02,95.7,89.02,196.4s82.338,183.042,183.6,183.042c100.7,0,183.042-82.338,183.042-183.042S373.314,13.356,272.616,13.356" transform="translate(0 0.001)" fill="#1978be" fill-rule="evenodd"></path>
    </g>
  </g>
</svg>
