<?xml version="1.0" encoding="UTF-8"?>
<svg xmlns="http://www.w3.org/2000/svg" xmlns:xlink="http://www.w3.org/1999/xlink" width="125px" height="88px" viewBox="0 0 125 88" version="1.1">
  <title>ORLEN 88</title>
  <defs>
    <filter color-interpolation-filters="auto" id="filter-1">
      <feColorMatrix in="SourceGraphic" type="matrix" values="0 0 0 0 0.847059 0 0 0 0 0.117647 0 0 0 0 0.015686 0 0 0 1.000000 0"></feColorMatrix>
    </filter>
  </defs>
  <g id="ORLEN-88" stroke="none" stroke-width="1" fill="none" fill-rule="evenodd">
    <g id="Orlen_Logo" transform="translate(0.000000, 0.000000)" filter="url(#filter-1)">
      <g transform="translate(0.061064, 0.067636)">
        <path d="M89.8134443,14.5338727 C89.8134443,13.646956 89.5506569,12.763652 89.0846192,11.9815035 L80.5911729,11.9815035 C80.1215225,12.763652 79.9119862,13.646956 79.9119862,14.5338727 C79.9119862,17.243394 82.1012794,19.4814587 84.8631849,19.4814587 C87.5727063,19.4814587 89.8134443,17.243394 89.8134443,14.5338727" id="path2542" fill="#D81E04" fill-rule="nonzero"></path>
        <path d="M84.8631126,23.4427789 L78.5093211,17.0880481 C75.2244419,13.8564923 70.9524299,11.9815035 66.3679197,11.9815035 L64.8596195,11.9815035 C59.2319075,11.9815035 54.6492037,16.5660137 54.6492037,22.2451705 C54.6492037,24.4832351 55.3230436,26.2046844 56.4203636,28.0778668 C56.0039643,25.05946 58.3983142,22.2451705 61.3670826,22.2451705 L66.2658972,22.2451705 C68.0875626,22.2451705 69.8587226,22.9731286 71.1095821,24.2231211 L94.3446311,47.4581701 C98.3050843,43.4480784 98.3050843,36.9361954 94.3446311,32.9233942 L84.8631126,23.4427789" id="path2546" fill="#D81E04" fill-rule="nonzero"></path>
        <path d="M106.27469,6.40892123 L105.38958,5.57438864 C101.847332,2.03033468 97.1056695,0 92.1047601,0 L84.8631126,0 L78.5093211,0.0523840799 C72.5682439,0.0523840799 67.5158897,4.37497385 66.6804179,10.263667 L92.1047601,10.263667 C94.3446311,10.263667 96.4815403,11.1487773 98.0973543,12.763652 L106.481553,21.1523302 C110.025534,24.6945778 116.590741,25.1624218 120.810369,20.9427939 L106.27469,6.40892123" id="path2550" fill="#D81E04" fill-rule="nonzero"></path>
        <path d="M19.1184189,65.7962107 L18.962206,65.7962107 C16.1497228,65.9009789 14.0136807,67.7759677 14.0136807,70.5884509 C14.0136807,73.0920486 16.1497228,75.2777292 18.962206,75.380691 L19.1184189,75.380691 C21.6717274,75.380691 23.9115984,73.14082 23.9115984,70.5884509 C23.9115984,67.7235836 21.6717274,65.7962107 19.1184189,65.7962107" id="path2554" fill="#D81E04" fill-rule="nonzero"></path>
        <path d="M44.0215938,64.8587163 C43.5501371,64.6509864 43.029909,64.5462182 42.405852,64.5462182 L41.1015968,64.5462182 L41.1015968,69.6518596 L42.405852,69.6518596 C43.029909,69.6518596 43.5501371,69.5461883 44.0215938,69.3384583 C44.8525137,68.9229984 45.2715863,68.1408499 45.2715863,67.1003937 C45.2715863,66.0039407 44.8525137,65.2235985 44.0215938,64.8587163" id="path2558" fill="#D81E04" fill-rule="nonzero"></path>
        <path d="M105.336256,53.0325587 L0,53.0325587 L0,87.8336512 L124.924289,87.8336512 L124.924289,53.0325587 L105.336256,53.0325587 Z M19.1184189,82.7271066 L18.9621338,82.7271066 C12.0329844,82.6241448 6.6681321,77.2574861 6.6681321,70.5884509 C6.6681321,63.9212219 12.0329844,58.2420651 18.9621338,58.1391033 L19.1184189,58.1391033 C25.8398383,58.1391033 31.2552684,63.9212219 31.2552684,70.5884509 C31.2552684,77.3080639 25.8398383,82.7271066 19.1184189,82.7271066 M44.9582211,82.0497263 L44.0215938,80.1765438 L41.101669,74.445003 L41.101669,82.0497263 L33.8094438,82.0497263 L33.8094438,58.8164837 L43.3424071,58.8164837 L44.0215938,58.8164837 C49.6465602,59.0242136 52.6171349,61.8385032 52.6171349,66.7860892 C52.6171349,69.9634546 50.6888227,72.2051319 48.1355865,72.5176301 L54.1786862,82.0497263 L44.9582211,82.0497263 Z M71.9964988,82.0497263 L56.4203636,82.0497263 L56.4203636,58.8164837 L64.6510225,58.8164837 L64.6510225,75.6949955 L71.9964988,75.6949955 L71.9964988,82.0497263 Z M91.7904556,82.0497263 L74.5488679,82.0497263 L74.5488679,58.8164837 L90.8033228,58.8164837 L90.8033228,64.5462182 L81.8926102,64.5462182 L81.8926102,67.4128918 L86.6857174,67.4128918 L86.6857174,72.8319346 L81.8926102,72.8319346 L81.8926102,75.6949955 L91.7904556,75.6949955 L91.7904556,82.0497263 Z M116.329688,82.0497263 L109.294903,82.0497263 L105.336256,76.0056873 L101.325297,69.9634546 C101.688373,71.2152535 101.688373,72.5176301 101.688373,73.4551245 L101.688373,82.0497263 L94.3446311,82.0497263 L94.3446311,58.8164837 L101.325297,58.8164837 L105.336256,64.8587163 L109.294903,70.9027553 C109.294903,69.3384583 108.984211,68.0360817 108.984211,67.1003937 L108.984211,66.421207 L108.984211,58.8164837 L116.329688,58.8164837 L116.329688,82.0497263" id="path2562" fill="#D81E04" fill-rule="nonzero"></path>
      </g>
    </g>
  </g>
</svg>
